#!OML:ASF I:\Actors\actors\Patient Classification 1\Patient 1\Session 1\Subject1.ASF
:FULLY-SPECIFIED
:DEGREES
451
root -0.0963462 17.6697 9.49233 20.9376 -5.30941 -7.77713
lowerback 8.65435 0.340128 7.48204
upperback -12.5815 2.02881 1.36967
thorax -19.3323 -0.0129667 -3.06753
lowerneck 2.92885 -1.88085 -0.87781
upperneck -33.8371 0.0823556 9.8681
head -11.4502 -1.00253 3.85647
rclavicle -3.46631e-015 1.35174e-014
rhumerus -47.3633 -10.5181 -78.1237
rradius 40.2616
rwrist 19.0981
rhand 1.76915 -29.3737
rfingers 7.12502
rthumb 27.2838 -57.4198
lclavicle -3.46631e-015 1.35174e-014
lhumerus -41.9153 4.60127 86.8471
lradius 33.9715
lwrist -2.66436
lhand -20.8949 -12.56
lfingers 7.12502
lthumb 5.47586 17.3493
rfemur -14.3115 25.9186 18.3156
rtibia 2.39247
rfoot -11.5483 -24.42
rtoes 1.46458
lfemur -0.656944 -63.8169 -8.02758
ltibia -3.88217
lfoot -82.6749 58.1691
ltoes 40.2872
452
root -0.0946221 17.6648 9.47461 20.2507 -5.31308 -7.73126
lowerback 8.4995 0.334639 7.35856
upperback -12.6802 1.98547 1.35078
thorax -19.3622 -0.0199154 -3.00664
lowerneck 2.97863 -1.90097 -1.03329
upperneck -33.693 0.0814575 10.0598
head -11.3983 -1.00106 3.94994
rclavicle 1.15047e-014 -1.64991e-014
rhumerus -47.248 -10.5814 -78.0955
rradius 40.2123
rwrist 19.0921
rhand 1.81711 -29.0287
rfingers 7.12502
rthumb 27.3297 -57.0675
lclavicle 1.15047e-014 -1.64991e-014
lhumerus -42.1503 4.83017 86.5681
lradius 33.4576
lwrist -2.87734
lhand -21.0366 -12.4043
lfingers 7.12502
lthumb 5.33906 17.5084
rfemur -13.5564 25.567 18.6488
rtibia 2.44684
rfoot -11.6417 -24.0688
rtoes 1.04095
lfemur 0.828591 -64.1826 -9.49394
ltibia -3.70108
lfoot -83.1295 58.3857
ltoes 39.8768
453
root -0.0934032 17.6608 9.4561 19.5912 -5.32932 -7.75132
lowerback 8.37461 0.339174 7.30179
upperback -12.7983 1.9712 1.32313
thorax -19.436 -0.0263527 -3.0006
lowerneck 3.22418 -1.92113 -1.04963
upperneck -33.6803 0.0856026 10.1561
head -11.4427 -1.01011 3.99313
rclavicle 8.59744e-015 -1.63003e-014
rhumerus -47.1474 -10.6694 -78.127
rradius 40.1378
rwrist 18.9573
rhand 1.81659 -29.1369
rfingers 7.12502
rthumb 27.3292 -57.1759
lclavicle 8.59744e-015 -1.63003e-014
lhumerus -42.4577 5.07149 86.245
lradius 32.9694
lwrist -3.28888
lhand -21.0983 -12.3881
lfingers 7.12502
lthumb 5.27941 17.5261
rfemur -12.8449 25.1799 19.0493
rtibia 2.51356
rfoot -11.5462 -23.6512
rtoes 0.401734
lfemur 2.37044 -64.4885 -10.9215
ltibia -3.57069
lfoot -83.5269 58.458
ltoes 39.7208
454
root -0.0934672 17.6568 9.4359 19.0381 -5.31601 -7.83532
lowerback 8.13557 0.35739 7.27733
upperback -12.9043 1.97514 1.33079
thorax -19.4132 -0.0209476 -2.97327
lowerneck 3.36501 -1.99477 -0.97756
upperneck -33.6663 -0.0240935 10.0981
head -11.4586 -1.06264 3.97013
rclavicle -3.35449e-015 1.64991e-014
rhumerus -47.0067 -10.7504 -78.1713
rradius 40.1235
rwrist 18.7599
rhand 1.75373 -29.2697
rfingers 7.12502
rthumb 27.269 -57.3182
lclavicle -3.35449e-015 1.64991e-014
lhumerus -42.6712 5.29725 85.9732
lradius 32.4461
lwrist -3.85585
lhand -21.1264 -12.3925
lfingers 7.12502
lthumb 5.25231 17.5224
rfemur -12.2656 24.8856 19.4694
rtibia 2.58996
rfoot -11.4234 -23.3393
rtoes -0.0315096
lfemur 3.55524 -64.7615 -11.9316
ltibia -3.47212
lfoot -83.8379 58.8097
ltoes 39.3069
455
root -0.0923927 17.6536 9.41382 18.539 -5.3289 -7.7906
lowerback 7.85063 0.3944 7.1364
upperback -12.9861 1.9766 1.3232
thorax -19.3241 0.00158955 -2.89804
lowerneck 3.27862 -2.07653 -1.00847
upperneck -33.4424 -0.177819 10.0473
head -11.3382 -1.1152 3.9557
rclavicle 7.50412e-015 -1.11319e-014
rhumerus -46.829 -10.812 -78.1682
rradius 40.1289
rwrist 18.7009
rhand 1.73634 -29.1587
rfingers 7.12502
rthumb 27.2524 -57.2097
lclavicle 7.50412e-015 -1.11319e-014
lhumerus -42.7839 5.45829 85.8107
lradius 31.9325
lwrist -4.40685
lhand -21.112 -12.4169
lfingers 7.12502
lthumb 5.26618 17.4976
rfemur -11.7731 24.6857 19.6755
rtibia 2.6488
rfoot -11.3855 -23.1582
rtoes -0.376836
lfemur 4.48084 -65.0286 -12.8792
ltibia -3.32991
lfoot -83.9864 59.4814
ltoes 38.4713
456
root -0.0918048 17.6533 9.39067 17.988 -5.33 -7.6308
lowerback 7.62343 0.400684 6.88557
upperback -13.0344 1.91581 1.28316
thorax -19.2353 0.00852746 -2.78678
lowerneck 3.30873 -2.07466 -1.00186
upperneck -33.2851 -0.187749 10.0261
head -11.2804 -1.11401 3.93885
rclavicle -1.32192e-014 -1.78906e-015
rhumerus -46.6585 -10.8115 -78.2187
rradius 40.1183
rwrist 18.7807
rhand 1.84967 -29.04
rfingers 7.12502
rthumb 27.3608 -57.074
lclavicle -1.32192e-014 -1.78906e-015
lhumerus -42.9413 5.5945 85.6423
lradius 31.5827
lwrist -4.9046
lhand -20.9472 -12.5155
lfingers 7.12502
lthumb 5.42528 17.3951
rfemur -11.2131 24.6593 19.749
rtibia 2.66604
rfoot -11.4509 -23.1542
rtoes -0.561802
lfemur 5.54518 -65.3367 -14.0922
ltibia -3.13597
lfoot -84.1778 59.8731
ltoes 37.9673
457
root -0.0902725 17.6516 9.36391 17.4843 -5.28131 -7.57648
lowerback 7.39526 0.373984 6.75456
upperback -13.0926 1.83424 1.26356
thorax -19.1628 -0.00997009 -2.71328
lowerneck 3.46098 -2.07281 -0.887417
upperneck -33.2367 -0.169307 10.0142
head -11.2953 -1.1188 3.91254
rclavicle 5.61567e-015 -1.96797e-014
rhumerus -46.5301 -10.7556 -78.3456
rradius 40.0897
rwrist 18.8036
rhand 1.88864 -29.0592
rfingers 7.12502
rthumb 27.3981 -57.0872
lclavicle 5.61567e-015 -1.96797e-014
lhumerus -43.2403 5.68831 85.4323
lradius 31.4214
lwrist -5.36344
lhand -20.732 -12.5693
lfingers 7.12502
lthumb 5.63308 17.3359
rfemur -10.7181 24.6073 19.9246
rtibia 2.71097
rfoot -11.5432 -23.089
rtoes -0.604863
lfemur 6.60308 -65.6424 -15.155
ltibia -2.99394
lfoot -84.5977 59.9447
ltoes 37.8349
458
root -0.086244 17.6463 9.33402 17.0839 -5.25103 -7.61285
lowerback 7.14558 0.370648 6.76789
upperback -13.1836 1.81243 1.2609
thorax -19.1148 -0.0217104 -2.71337
lowerneck 3.61021 -2.1458 -0.773468
upperneck -33.1952 -0.272682 9.95809
head -11.3036 -1.17417 3.88136
rclavicle -1.71949e-014 -1.76918e-014
rhumerus -46.4803 -10.7262 -78.4135
rradius 40.0277
rwrist 18.8373
rhand 1.83612 -28.9576
rfingers 7.12502
rthumb 27.3479 -56.9936
lclavicle -1.71949e-014 -1.76918e-014
lhumerus -43.5829 5.79492 85.2315
lradius 31.2825
lwrist -5.82045
lhand -20.4949 -12.5194
lfingers 7.12502
lthumb 5.86199 17.3795
rfemur -10.404 24.387 20.1409
rtibia 2.85269
rfoot -11.6074 -22.8248
rtoes -0.684173
lfemur 7.28397 -65.2591 -15.7374
ltibia -3.06351
lfoot -83.8496 60.0533
ltoes 37.452
459
root -0.083298 17.6412 9.30291 16.6681 -5.22842 -7.54958
lowerback 7.1224 0.40009 6.76372
upperback -13.3808 1.84622 1.16102
thorax -19.3596 -0.0292552 -2.83373
lowerneck 3.72677 -2.25907 -0.796953
upperneck -32.9685 -0.424194 10.0434
head -11.2241 -1.24511 3.92149
rclavicle 6.01324e-015 -5.56597e-015
rhumerus -46.7657 -10.7367 -78.4419
rradius 40.0319
rwrist 18.8072
rhand 1.90515 -28.8212
rfingers 7.12502
rthumb 27.4139 -56.8468
lclavicle 6.01324e-015 -5.56597e-015
lhumerus -44.0523 5.74154 85.0247
lradius 31.0568
lwrist -6.23173
lhand -20.2464 -12.4754
lfingers 7.12502
lthumb 6.10194 17.4168
rfemur -10.0967 24.2484 20.2299
rtibia 3.01221
rfoot -11.7316 -22.66
rtoes -0.527904
lfemur 7.80169 -64.6966 -16.276
ltibia -3.12385
lfoot -82.6784 60.0546
ltoes 37.107
460
root -0.0817459 17.6377 9.27162 16.1956 -5.12147 -7.40228
lowerback 7.1544 0.388636 6.66715
upperback -13.5519 1.80881 1.04652
thorax -19.616 -0.0575387 -2.90552
lowerneck 3.74426 -2.33841 -0.891118
upperneck -32.5875 -0.51628 10.2435
head -11.0659 -1.28865 4.00078
rclavicle -6.06293e-015 -1.59028e-015
rhumerus -47.0367 -10.5895 -78.5755
rradius 40.0425
rwrist 18.6529
rhand 2.03367 -28.8408
rfingers 7.12502
rthumb 27.5368 -56.8469
lclavicle -6.06293e-015 -1.59028e-015
lhumerus -44.476 5.65785 84.8233
lradius 30.7708
lwrist -6.59885
lhand -20.0062 -12.4702
lfingers 7.12502
lthumb 6.33379 17.4152
rfemur -9.67107 24.1761 20.2588
rtibia 3.08256
rfoot -11.88 -22.6422
rtoes -0.324136
lfemur 8.31893 -64.1048 -16.8798
ltibia -3.16995
lfoot -81.2119 59.9482
ltoes 36.8204
461
root -0.0796069 17.6347 9.23918 15.7353 -4.99756 -7.28598
lowerback 6.70086 0.312398 6.37083
upperback -13.3663 1.61646 1.13966
thorax -19.0668 -0.0678533 -2.58142
lowerneck 3.67088 -2.28999 -0.960014
upperneck -32.6073 -0.446116 10.2839
head -11.0626 -1.25231 4.02128
rclavicle 1.05853e-014 1.31198e-014
rhumerus -46.4676 -10.1923 -78.8047
rradius 39.8975
rwrist 18.659
rhand 2.07224 -28.6779
rfingers 7.12502
rthumb 27.5737 -56.678
lclavicle 1.05853e-014 1.31198e-014
lhumerus -44.1926 6.11141 84.6978
lradius 30.3775
lwrist -7.06684
lhand -19.8952 -12.5502
lfingers 7.12502
lthumb 6.44101 17.3318
rfemur -9.24803 24.0704 20.3109
rtibia 3.13605
rfoot -12.0144 -22.5842
rtoes -0.194063
lfemur 8.76747 -63.4918 -17.3834
ltibia -3.22756
lfoot -79.5415 60.0694
ltoes 36.17
462
root -0.0770522 17.6326 9.20493 15.3489 -4.93068 -7.24359
lowerback 6.90534 0.317661 6.4321
upperback -13.6827 1.64897 1.01137
thorax -19.6356 -0.101765 -2.77404
lowerneck 3.80933 -2.39472 -0.891702
upperneck -32.1832 -0.599001 10.3191
head -10.9128 -1.32596 4.01536
rclavicle 0 2.38542e-015
rhumerus -47.1151 -10.0571 -78.9159
rradius 39.8636
rwrist 18.8356
rhand 1.99802 -28.3982
rfingers 7.12502
rthumb 27.5027 -56.4096
lclavicle 0 2.38542e-015
lhumerus -44.9849 5.97957 84.4006
lradius 30.1769
lwrist -7.46973
lhand -19.8964 -12.609
lfingers 7.12502
lthumb 6.43985 17.2731
rfemur -8.96909 23.9656 20.3864
rtibia 3.27493
rfoot -12.1669 -22.4436
rtoes 0.177833
lfemur 8.92052 -62.692 -17.5392
ltibia -3.29118
lfoot -77.5918 60.1462
ltoes 35.471
463
root -0.0742889 17.6307 9.17198 15.045 -4.87739 -7.28523
lowerback 6.35729 0.293327 6.26767
upperback -13.5266 1.55351 1.15454
thorax -19.0514 -0.0816773 -2.48613
lowerneck 3.78724 -2.3409 -0.888059
upperneck -32.3017 -0.551448 10.1892
head -10.9595 -1.29271 3.96791
rclavicle -8.15017e-015 -2.38542e-015
rhumerus -46.6036 -9.77557 -79.0366
rradius 39.6086
rwrist 19.0765
rhand 1.8514 -28.4292
rfingers 7.12502
rthumb 27.3625 -56.4629
lclavicle -8.15017e-015 -2.38542e-015
lhumerus -44.7832 6.60833 84.206
lradius 29.8602
lwrist -8.18679
lhand -19.8055 -12.6215
lfingers 7.12502
lthumb 6.52761 17.2579
rfemur -8.79958 23.8113 20.525
rtibia 3.43852
rfoot -12.2571 -22.2598
rtoes 0.348827
lfemur 8.93834 -61.9669 -17.462
ltibia -3.36573
lfoot -75.9642 60.0118
ltoes 35.1472
464
root -0.072184 17.6292 9.14049 14.756 -4.86634 -7.35389
lowerback 6.12451 0.301141 6.21452
upperback -13.6052 1.54912 1.2177
thorax -18.9981 -0.0682664 -2.37793
lowerneck 3.95069 -2.30933 -0.895897
upperneck -32.2241 -0.507758 10.1869
head -10.9649 -1.27253 3.96381
rclavicle -1.26228e-014 1.90833e-014
rhumerus -46.689 -9.58719 -79.0639
rradius 39.386
rwrist 19.4157
rhand 1.77629 -28.5582
rfingers 7.12502
rthumb 27.2906 -56.6032
lclavicle -1.26228e-014 1.90833e-014
lhumerus -45.1005 7.05433 83.8882
lradius 29.5963
lwrist -8.88478
lhand -19.596 -12.6297
lfingers 7.12502
lthumb 6.72981 17.2434
rfemur -8.63152 23.6238 20.6982
rtibia 3.56666
rfoot -12.2714 -22.0552
rtoes 0.180558
lfemur 9.18689 -61.5387 -17.5598
ltibia -3.45881
lfoot -74.9609 59.9339
ltoes 34.9962
